<svg xmlns="http://www.w3.org/2000/svg" width="52.039" height="52.039" viewBox="0 0 52.039 52.039">
  <path id="Path_1335" data-name="Path 1335" d="M1675.1,390.781h0a26.02,26.02,0,0,0-26.02,26.02h0a26.019,26.019,0,0,0,26.02,26.02h0a26.019,26.019,0,0,0,26.02-26.02h0a26.02,26.02,0,0,0-26.02-26.02Z" transform="translate(-1649.079 -390.781)" fill="#f5f5f5"/>
  <g id="Group_1416" data-name="Group 1416" transform="translate(-33.245 -337.48)">
    <path id="Path_1348" data-name="Path 1348" d="M1088.636,552.75V550.6c-.237-.011-.444-.017-.65-.03a1.107,1.107,0,0,1-1.142-1.127q-.03-2.459,0-4.919a1.092,1.092,0,0,1,1.15-1.117q4.482-.015,8.964,0a1.1,1.1,0,0,1,1.15,1.154q.022,2.419,0,4.839c-.007.757-.473,1.17-1.294,1.174q-2.7.011-5.394,0a.96.96,0,0,0-.736.293c-.559.544-1.136,1.069-1.708,1.6C1088.884,552.544,1088.785,552.622,1088.636,552.75Z" transform="translate(-1023.581 -194.702)" fill="#8401ff"/>
    <path id="Path_1349" data-name="Path 1349" d="M1012.274,709.095q-2.319,0-4.638,0c-.711,0-.965-.247-.965-.943q0-2.815,0-5.63c0-.692.262-.951.965-.951q4.678,0,9.356,0c.689,0,.951.272.952.97q0,2.8,0,5.59c0,.7-.258.962-.951.963Q1014.633,709.1,1012.274,709.095Zm4.966-6.381c-.111-.142-.177-.308-.268-.323a.714.714,0,0,0-.471.085q-1.971,1.295-3.92,2.62a.42.42,0,0,1-.557,0c-1.3-.884-2.609-1.753-3.915-2.629-.223-.149-.449-.212-.618.049-.156.241-.025.42.187.561,1.451.966,2.9,1.941,4.359,2.891a.6.6,0,0,0,.534,0c1.462-.95,2.91-1.922,4.356-2.9A1.97,1.97,0,0,0,1017.24,702.714Z" transform="translate(-954.809 -328.514)" fill="#8401ff"/>
    <path id="Path_1350" data-name="Path 1350" d="M1031.031,643.513h-4.495v.722h-7.09c-.119-1.743.862-3.946,2.425-4.6a2.807,2.807,0,0,1,3.4.917,14.692,14.692,0,0,1,.839,1.251,9.015,9.015,0,0,1,.569-.815,2.211,2.211,0,0,1,3.582.122A3.738,3.738,0,0,1,1031.031,643.513Z" transform="translate(-965.55 -276.207)" fill="#8401ff"/>
    <path id="Path_1351" data-name="Path 1351" d="M1098.713,605.6a15.588,15.588,0,0,1-9.675,14.588c-.513.208-.929.085-1.112-.327s.013-.831.532-1.06l.254-.112a13.476,13.476,0,0,0,5.921-4.807,13.914,13.914,0,0,0,1.544-13.427c-.056-.148-.124-.292-.172-.443a.743.743,0,0,1,.444-.968.712.712,0,0,1,.943.421c.3.775.6,1.553.819,2.352A13.729,13.729,0,0,1,1098.713,605.6Z" transform="translate(-1023.112 -242.214)" fill="#8401ff"/>
    <path id="Path_1352" data-name="Path 1352" d="M962.346,582.048c0,.568,0,1.136,0,1.7,0,.428-.117.555-.529.557-.977.006-1.955.011-2.932-.007a.882.882,0,0,1-.488-.2c-.226-.18-.4-.428-.628-.6a1.755,1.755,0,0,0-.64-.313c-.277-.065-.421-.182-.42-.473q.006-1.229,0-2.457c0-.339.179-.5.5-.456a.789.789,0,0,0,.93-.589c.185-.451.425-.878.646-1.313.18-.354.491-.46.98-.35.356.079.336.357.337.624,0,.37.009.74,0,1.11s.166.526.53.515.74,0,1.109,0c.533,0,.608.079.609.628S962.346,581.506,962.346,582.048Z" transform="translate(-912.775 -224.137)" fill="#8401ff"/>
    <path id="Path_1353" data-name="Path 1353" d="M951.581,631.918a14.108,14.108,0,0,0,5.5,11.347c.114.091.234.173.343.269a.746.746,0,0,1,.133,1.06.709.709,0,0,1-1.055.115,27.412,27.412,0,0,1-2.758-2.6,15.363,15.363,0,0,1-3.631-11.2,2.927,2.927,0,0,1,.057-.432.721.721,0,0,1,.8-.606.712.712,0,0,1,.672.744C951.639,631.048,951.6,631.483,951.581,631.918Z" transform="translate(-907.2 -268.187)" fill="#8401ff"/>
    <path id="Path_1355" data-name="Path 1355" d="M1028.734,611.01a2.444,2.444,0,1,1,2.447-2.451A2.471,2.471,0,0,1,1028.734,611.01Z" transform="translate(-971.318 -248.211)" fill="#8401ff"/>
    <path id="Path_1356" data-name="Path 1356" d="M1067.959,619.861a1.872,1.872,0,0,1-3.745-.016,1.872,1.872,0,1,1,3.745.016Z" transform="translate(-1003.222 -258.184)" fill="#8401ff"/>
    <path id="Path_1357" data-name="Path 1357" d="M940.778,591.749c0,.594,0,1.188,0,1.781,0,.329-.142.49-.475.485s-.66-.006-.989,0a.424.424,0,0,1-.479-.411c-.2-1.2-.405-2.39-.6-3.587a.4.4,0,0,1,.43-.518c.554-.009,1.108,0,1.662,0a.406.406,0,0,1,.452.471C940.774,590.561,940.777,591.155,940.778,591.749Z" transform="translate(-897.224 -234.222)" fill="#8401ff"/>
  </g>
</svg>
