<svg xmlns="http://www.w3.org/2000/svg" width="52.039" height="52.039" viewBox="0 0 52.039 52.039">
  <path id="Path_1335" data-name="Path 1335" d="M1675.1,390.781h0a26.02,26.02,0,0,0-26.02,26.02h0a26.019,26.019,0,0,0,26.02,26.02h0a26.019,26.019,0,0,0,26.02-26.02h0a26.02,26.02,0,0,0-26.02-26.02Z" transform="translate(-1649.079 -390.781)" fill="#f5f5f5"/>
  <g id="Group_1417" data-name="Group 1417" transform="translate(-33.245 -251.48)">
    <path id="Path_1336" data-name="Path 1336" d="M822.551,412.8h1.455v3.8H798.732v-3.8h1.47v-.33q0-6.052,0-12.1a.452.452,0,0,0-.231-.436,3.311,3.311,0,0,1-1.568-3.271,4.523,4.523,0,0,1,.287-1.059c.555-1.542,1.128-3.077,1.684-4.618a.326.326,0,0,1,.365-.263q10.6.01,21.195,0a.327.327,0,0,1,.365.263c.657,1.8,1.338,3.587,1.977,5.391a2.642,2.642,0,0,1-.03,1.557,3.251,3.251,0,0,1-1.529,2.037.327.327,0,0,0-.189.324q.006,6.129,0,12.259C822.536,412.634,822.545,412.709,822.551,412.8Zm-19.032.043c0-.6,0-1.174,0-1.752,0-1.728-.038-3.458.029-5.184a3.582,3.582,0,0,1,7.152.36c.006,2.091,0,4.182,0,6.273v.292h10.1v-12.3a3.606,3.606,0,0,1-3.128-1.81,3.667,3.667,0,0,1-6.3.009,3.677,3.677,0,0,1-6.313,0,3.591,3.591,0,0,1-3.121,1.8v12.311Zm11.061-15.976v-1.8c.437-.029.8-.017,1.032.428s.53.888.806,1.325c.044.07.129.156.2.16.28.018.562.008.888.008a6.761,6.761,0,0,0-1.4-2,1.1,1.1,0,0,0,1.049-.953,1.141,1.141,0,0,0-1.07-1.486c-.756-.048-1.517-.021-2.276-.025-.013,0-.026.019-.037.028v4.32Zm-1.549-2.2c-.013-.12-.026-.345-.061-.566a1.908,1.908,0,0,0-1.617-1.625,1.822,1.822,0,0,0-2.153,1.074,3.562,3.562,0,0,0-.245,1.1,2.044,2.044,0,0,0,.99,2.12,2.158,2.158,0,0,0,2.34-.18A2.256,2.256,0,0,0,813.031,394.671Zm4.991-2.152v4.5h3.228v-.767h-2.343v-1.2h.3c.526,0,1.053,0,1.579-.006.068,0,.187-.075.193-.126a6.118,6.118,0,0,0,.009-.646H818.9v-1.005h2.236v-.752Zm-16.484,3.029a1.5,1.5,0,0,0,1.035,1.41,2.6,2.6,0,0,0,1.456-.027,1.324,1.324,0,0,0,.917-1.168,1.211,1.211,0,0,0-.8-1.355c-.384-.15-.79-.243-1.181-.375a1.093,1.093,0,0,1-.377-.207.265.265,0,0,1,.041-.471,1.453,1.453,0,0,1,.654-.171.737.737,0,0,1,.736.681c.154,0,.283.005.411,0s.27-.025.4-.039a1.306,1.306,0,0,0-.94-1.283,2.281,2.281,0,0,0-1.569.09,1.082,1.082,0,0,0-.437,1.7,1.7,1.7,0,0,0,.888.59c.335.108.673.211,1,.336a.47.47,0,0,1,.144.79c-.3.32-1.222.329-1.416-.234-.049-.143-.112-.281-.169-.423Zm5.084-2.323v3.745h.82v-3.691H808.7v-.751h-3.335v.7Z" transform="translate(-753.386 -125.882)" fill="#8401ff"/>
    <path id="Path_1339" data-name="Path 1339" d="M1021.846,439.316a5.507,5.507,0,0,1-.216.811,1.008,1.008,0,0,1-1.081.63,1.02,1.02,0,0,1-.945-.755,2.416,2.416,0,0,1-.01-1.452,1.109,1.109,0,0,1,1.417-.787,1.036,1.036,0,0,1,.745.873C1021.8,438.827,1021.809,439.027,1021.846,439.316Z" transform="translate(-963.006 -170.433)" fill="#8401ff"/>
  </g>
</svg>
