<svg xmlns="http://www.w3.org/2000/svg" width="52.039" height="52.039" viewBox="0 0 52.039 52.039">
  <path id="Path_1335" data-name="Path 1335" d="M1675.1,390.781h0a26.02,26.02,0,0,0-26.02,26.02h0a26.019,26.019,0,0,0,26.02,26.02h0a26.019,26.019,0,0,0,26.02-26.02h0a26.02,26.02,0,0,0-26.02-26.02Z" transform="translate(-1649.079 -390.781)" fill="#f5f5f5"/>
  <g id="Group_1414" data-name="Group 1414" transform="translate(-33.245 -509.48)">
    <path id="Path_1358" data-name="Path 1358" d="M1408.8,68.469a.624.624,0,0,1-.189-.012,1.272,1.272,0,0,0-1.414.505c-.187.225-.4.522-.651.571s-.549-.152-.794-.3a1.225,1.225,0,0,0-1.339-.022,1.647,1.647,0,0,1-.946.32c-.272-.057-.5-.42-.708-.678a.938.938,0,0,0-.913-.385c-.33.04-.668.007-1,.024a.272.272,0,0,1-.308-.2c-.111-.283-.262-.553-.35-.842a.8.8,0,0,0-.6-.567c-.338-.1-.664-.241-1-.354a.271.271,0,0,1-.217-.294c0-.393-.02-.786-.051-1.178a.5.5,0,0,0-.137-.3c-.321-.3-.649-.6-.991-.881a.3.3,0,0,1-.106-.4c.127-.319.225-.649.351-.968a.587.587,0,0,0-.039-.556c-.205-.357-.375-.735-.573-1.1a.244.244,0,0,1,.033-.334c.245-.269.462-.563.711-.827a.594.594,0,0,0,.161-.534c-.054-.409-.107-.819-.134-1.23a.4.4,0,0,1,.151-.288,2.284,2.284,0,0,1,.566-.311,1.163,1.163,0,0,0,.834-1.048,2.1,2.1,0,0,1,.078-.314c.191-.7.189-.732.92-.759a1.354,1.354,0,0,0,1.3-.753c.105-.208.283-.377.409-.576a.3.3,0,0,1,.4-.134c.358.1.72.2,1.086.266a.585.585,0,0,0,.375-.065c.381-.223.743-.479,1.125-.7a.382.382,0,0,1,.325,0,4.272,4.272,0,0,1,.7.491.938.938,0,0,0,.973.2c.31-.091.633-.134.948-.208a.282.282,0,0,1,.361.154c.1.18.25.334.336.519a1.176,1.176,0,0,0,1.121.732c.262.008.522.094.785.121a.272.272,0,0,1,.268.254c.079.374.153.751.254,1.119a.59.59,0,0,0,.225.312c.361.237.734.457,1.111.669a.286.286,0,0,1,.172.352,10.9,10.9,0,0,0-.166,1.106.679.679,0,0,0,.112.418c.243.345.509.674.777,1a.284.284,0,0,1,.032.388,10.98,10.98,0,0,0-.558.97.639.639,0,0,0-.047.409c.1.409.222.814.361,1.212a.319.319,0,0,1-.138.421,8.512,8.512,0,0,0-.8.65.8.8,0,0,0-.233.436c-.057.408-.077.822-.093,1.234a.283.283,0,0,1-.24.312,1.092,1.092,0,0,0-.114.03,3.382,3.382,0,0,0-1.144.422,3.3,3.3,0,0,0-.57,1.082C1409.377,68.489,1409.38,68.491,1408.8,68.469Zm-9.62-7.127a5.825,5.825,0,1,0,5.842-5.817A5.841,5.841,0,0,0,1399.175,61.343Z" transform="translate(-1345.546 468.635)" fill="#8403fa"/>
    <path id="Path_1359" data-name="Path 1359" d="M1428.123,330.392c-.773-.777-1.516-1.506-2.235-2.258a.512.512,0,0,0-.676-.158c-.866.37-1.75.7-2.628,1.04-.053.021-.109.035-.215.069.117-.53.225-1.024.335-1.517.626-2.806,1.257-5.611,1.874-8.419.053-.243.148-.317.388-.308.412.016.826-.013,1.239,0a.6.6,0,0,1,.354.147c.281.26.548.537.8.821a.264.264,0,0,0,.356.072c.4-.174.792-.345,1.2-.488a.693.693,0,0,1,.435.015c.294.108.567.272.86.383.228.086.249.214.2.429-.253,1.089-.492,2.182-.735,3.273q-.74,3.318-1.48,6.637C1428.183,330.2,1428.161,330.261,1428.123,330.392Z" transform="translate(-1369.637 218.682)" fill="#8403fa"/>
    <path id="Path_1360" data-name="Path 1360" d="M1540.794,329.93c-.235-1.05-.428-2.05-.692-3.031a3.017,3.017,0,0,1,.118-1.5c.415-1.9.838-3.792,1.242-5.69a1.85,1.85,0,0,1,.431-.711,1.439,1.439,0,0,1,1.492-.623,6.258,6.258,0,0,0,.895.007l2.285,10.238c-.118-.036-.2-.055-.272-.084-.895-.351-1.792-.7-2.682-1.061a.358.358,0,0,0-.459.1c-.693.71-1.4,1.408-2.1,2.109C1540.982,329.757,1540.909,329.821,1540.794,329.93Z" transform="translate(-1480.368 219.137)" fill="#8403fa"/>
    <path id="Path_1361" data-name="Path 1361" d="M1452.932,102.383a5.234,5.234,0,1,1-5.421,5.093A5.24,5.24,0,0,1,1452.932,102.383Zm2.507,8.913c0-.129.006-.207,0-.284-.07-.743-.134-1.486-.216-2.228a.716.716,0,0,1,.2-.634c.393-.412.756-.852,1.13-1.281.172-.2.34-.4.547-.641-.536-.121-1.021-.228-1.5-.339a3.615,3.615,0,0,1-1.267-.332,3.559,3.559,0,0,1-.717-1.092c-.269-.441-.532-.884-.817-1.358-.076.115-.131.192-.179.273-.4.666-.785,1.338-1.195,2a.649.649,0,0,1-.352.258c-.464.124-.936.213-1.4.319-.384.087-.768.181-1.189.28.6.688,1.157,1.336,1.728,1.97a.579.579,0,0,1,.163.5c-.063.526-.111,1.055-.159,1.583-.029.318-.048.637-.074,1,.135-.052.225-.084.313-.121.695-.3,1.392-.587,2.082-.893a.592.592,0,0,1,.529,0C1453.837,110.621,1454.623,110.949,1455.438,111.3Z" transform="translate(-1393.294 422.369)" fill="#8403fa"/>
  </g>
</svg>
