<svg xmlns="http://www.w3.org/2000/svg" width="52.039" height="52.039" viewBox="0 0 52.039 52.039">
  <path id="Path_1335" data-name="Path 1335" d="M1675.1,390.781h0a26.02,26.02,0,0,0-26.02,26.02h0a26.019,26.019,0,0,0,26.02,26.02h0a26.019,26.019,0,0,0,26.02-26.02h0a26.02,26.02,0,0,0-26.02-26.02Z" transform="translate(-1649.079 -390.781)" fill="#f5f5f5"/>
  <g id="Group_1415" data-name="Group 1415" transform="translate(-33.245 -423.48)">
    <path id="Path_1340" data-name="Path 1340" d="M1485.581,544.7c-1.9-.491-3.735-.976-5.575-1.438-2.492-.625-4.994-1.213-7.48-1.862-.506-.132-.681-.017-.861.444q-2.581,6.625-5.2,13.235c-.074.188-.159.371-.265.617l-1.912-.775c1.017-2.574,2-5.076,2.995-7.576q1.466-3.7,2.94-7.393c.322-.805.652-.987,1.5-.784q7.554,1.813,15.1,3.648c1.194.291,1.417.7,1,1.857-1.963,5.418-3.925,10.835-5.937,16.235a14.308,14.308,0,0,1-1.475,2.828,5.762,5.762,0,0,1-7.34,2.363c-3.447-1.442-6.824-3.057-10.193-4.676a4.574,4.574,0,0,1-2.481-3.773,19.028,19.028,0,0,1-.017-2.4c1.024.4,1.955.751,2.879,1.121,2.928,1.171,5.852,2.353,8.782,3.517a.667.667,0,0,1,.476.614,9.417,9.417,0,0,0,.538,2.113,2.941,2.941,0,0,0,4.88.891,7.586,7.586,0,0,0,1.443-2.178c1.3-3.165,2.546-6.357,3.755-9.561.825-2.187,1.559-4.408,2.332-6.615C1485.5,545.039,1485.525,544.916,1485.581,544.7Z" transform="translate(-1415.611 -103.352)" fill="#8401ff"/>
    <path id="Path_1341" data-name="Path 1341" d="M1537.808,615.652l.324-.786c.294.1.558.217.832.292.368.1.586.286.518.7-.061.372.118.552.466.687,1.81.7,3.61,1.431,5.412,2.154.684.274.731.516.157,1-.751.635-1.5,1.273-2.3,1.841a1.271,1.271,0,0,1-.969.143,14.961,14.961,0,0,1-2.278-.875.934.934,0,0,0-1.407.431l4.815,1.983-.28.8c-1.736-.732-3.426-1.426-5.1-2.16-.526-.231-.449-.7-.25-1.131a.6.6,0,0,1,.249-.277c.969-.486.9-1.339.8-2.209-.046-.437-.089-.877-.091-1.315C1538.7,616.307,1538.625,615.751,1537.808,615.652Z" transform="translate(-1483.107 -169.554)" fill="#8401ff"/>
    <path id="Path_1342" data-name="Path 1342" d="M1576.385,603.59c.222.061.465.121.7.194,1.377.417,2.757.825,4.128,1.26a1.037,1.037,0,0,1,.795,1.283.95.95,0,0,1-1.33.655c-1.543-.447-3.077-.925-4.606-1.416a.936.936,0,0,1-.675-1.131A1,1,0,0,1,1576.385,603.59Z" transform="translate(-1516.122 -159.702)" fill="#8401ff"/>
    <path id="Path_1343" data-name="Path 1343" d="M1594.5,579.607c.021.885-.574,1.443-1.2,1.266-1.622-.463-3.232-.971-4.835-1.5a.958.958,0,0,1-.6-1.209.944.944,0,0,1,1.22-.684c1.58.461,3.16.922,4.717,1.453C1594.125,579.05,1594.35,579.46,1594.5,579.607Z" transform="translate(-1526.983 -136.852)" fill="#8401ff"/>
    <path id="Path_1344" data-name="Path 1344" d="M1561.84,568.8a1.093,1.093,0,0,1-1.143,1.075,1.14,1.14,0,0,1-1.125-1.112,1.236,1.236,0,0,1,1.2-1.126A1.138,1.138,0,0,1,1561.84,568.8Z" transform="translate(-1502.309 -128.287)" fill="#8401ff"/>
    <path id="Path_1345" data-name="Path 1345" d="M1548.361,596.334a1.039,1.039,0,0,1-1.115-1.138,1.132,1.132,0,0,1,2.261.084A1.056,1.056,0,0,1,1548.361,596.334Z" transform="translate(-1491.54 -151.458)" fill="#8401ff"/>
    <path id="Path_1346" data-name="Path 1346" d="M1565.875,688.785a.794.794,0,0,1-.785.85.847.847,0,0,1-.1-1.69A.849.849,0,0,1,1565.875,688.785Z" transform="translate(-1506.367 -233.406)" fill="#8401ff"/>
    <path id="Path_1347" data-name="Path 1347" d="M1532.855,675.685a.768.768,0,0,1-.851.843.781.781,0,0,1-.828-.807.846.846,0,0,1,.862-.867A.8.8,0,0,1,1532.855,675.685Z" transform="translate(-1477.5 -221.968)" fill="#8401ff"/>
  </g>
</svg>
