<svg xmlns="http://www.w3.org/2000/svg" width="42" height="8.333" viewBox="0 0 42 8.333">
  <g id="Dots" transform="translate(-1.333 -1.667)">
    <g id="Ellipse_1_copy_3" data-name="Ellipse 1 copy 3" fill="#8401ff" stroke-miterlimit="10">
      <path d="M 5.499979019165039 9.499958992004395 C 3.478178977966309 9.499958992004395 1.833319067955017 7.855099201202393 1.833319067955017 5.83328914642334 C 1.833319067955017 3.811479091644287 3.478178977966309 2.166619062423706 5.499979019165039 2.166619062423706 C 7.521789073944092 2.166619062423706 9.166659355163574 3.811479091644287 9.166659355163574 5.83328914642334 C 9.166659355163574 7.855099201202393 7.521789073944092 9.499958992004395 5.499979019165039 9.499958992004395 Z" stroke="none"/>
      <path d="M 5.499979019165039 2.666619300842285 C 3.753879070281982 2.666619300842285 2.333318710327148 4.087179183959961 2.333318710327148 5.83328914642334 C 2.333318710327148 7.579399108886719 3.753879070281982 8.999958992004395 5.499979019165039 8.999958992004395 C 7.246088981628418 8.999958992004395 8.666659355163574 7.579399108886719 8.666659355163574 5.83328914642334 C 8.666659355163574 4.087179183959961 7.246088981628418 2.666619300842285 5.499979019165039 2.666619300842285 M 5.499979019165039 1.666619300842285 C 7.801178932189941 1.666619300842285 9.666659355163574 3.532109260559082 9.666659355163574 5.83328914642334 C 9.666659355163574 8.134509086608887 7.801178932189941 9.999958992004395 5.499979019165039 9.999958992004395 C 3.198799133300781 9.999958992004395 1.333318710327148 8.134509086608887 1.333318710327148 5.83328914642334 C 1.333318710327148 3.532109260559082 3.198799133300781 1.666619300842285 5.499979019165039 1.666619300842285 Z" stroke="none" fill="#8401ff"/>
    </g>
    <path id="Ellipse_1_copy" data-name="Ellipse 1 copy" d="M5,1.667A3.333,3.333,0,1,1,1.667,5,3.333,3.333,0,0,1,5,1.667Z" transform="translate(18 1)" fill="#303030" opacity="0.3"/>
    <path id="Ellipse_1_copy_2" data-name="Ellipse 1 copy 2" d="M5,1.667A3.333,3.333,0,1,1,1.667,5,3.333,3.333,0,0,1,5,1.667Z" transform="translate(35 1)" fill="#303030" opacity="0.3"/>
  </g>
</svg>
