<svg xmlns="http://www.w3.org/2000/svg" width="122.862" height="56.882" viewBox="0 0 122.862 56.882">
  <g id="Group_971" data-name="Group 971" transform="translate(-226.047 -161.982)">
    <path id="Path_172" data-name="Path 172" d="M841.8,198.658l1.249,1.249,3.583,3.582a.317.317,0,0,0,.448,0l.921-.921a.318.318,0,0,0,0-.449l-2.319-2.319a3.042,3.042,0,0,0,2.234-2.923,3,3,0,0,0-.2-1.092h1.922a.318.318,0,0,0,.317-.317v-1.3a.318.318,0,0,0-.317-.317h-8.244a.318.318,0,0,0-.317.317v1.3a.318.318,0,0,0,.314.317h3.507a1.092,1.092,0,0,1-.006,2.184h-2.767A.449.449,0,0,0,841.8,198.658Z" transform="translate(-507.062 -26.271)" fill-rule="evenodd"/>
    <path id="Path_173" data-name="Path 173" d="M798.618,182.9l-1.282,1.167-.182.166,1.463-1.333Zm-24.627,5.251a.967.967,0,0,1-.085-.072l.085.072Zm-.1-.088-.015-.016.015.016Zm-.015-.016-.073-.086a.935.935,0,0,0,.073.086Zm-.24-.458c0-.021-.008-.042-.011-.063l.011.063Zm-.016-.114c0-.022,0-.044,0-.066l0,.066Zm0-16.235h0v0Zm4.357-6.385.631-.869.391-.54-1.023,1.409Zm1.122,17.615h0l0,0,0,0Zm20.538.229-6.777,6.173H788.84l-6.042,7.808,1.691-7.808h-9.941a1.47,1.47,0,0,1-1.466-1.466v-16.1a1.294,1.294,0,0,1,.274-1l5.793-7.989a.823.823,0,0,1,.668-.344H799.1a.823.823,0,0,1,.821.821v19.279a.82.82,0,0,1-.255.593l-.03.027Zm-10.182.2.178-.578h-9.786a.269.269,0,0,1-.268-.269V162.829a.269.269,0,0,1,.268-.269H799.07a.269.269,0,0,1,.269.269v19.228a.269.269,0,0,1-.269.269h-7.08l-.465.578-.795.99-2.576,3.206.991-3.206Z" transform="translate(-451.008)" fill-rule="evenodd"/>
    <path id="Path_174" data-name="Path 174" d="M234.577,270.546v16.816h-8.53V245.14h15.546q7.319,0,11.281,3.66a11.82,11.82,0,0,1,3.962,9.043,12.7,12.7,0,0,1-2.42,7.44A12.479,12.479,0,0,1,246.8,270l10.768,17.361h-10.1l-10.1-16.816Zm0-18.873v12.34h7.017a6.707,6.707,0,0,0,4.9-1.663,6.844,6.844,0,0,0,0-9.013,6.707,6.707,0,0,0-4.9-1.663Z" transform="translate(0 -68.56)" fill-rule="evenodd"/>
    <path id="Path_175" data-name="Path 175" d="M404.713,343.6a13.938,13.938,0,0,1-10.48-4.176q-4.043-4.177-4.043-11.039t4.069-10.986a14.154,14.154,0,0,1,10.534-4.122,14.628,14.628,0,0,1,10.613,4.016q4.149,4.016,4.149,10.719a18.185,18.185,0,0,1-.213,2.872H397.851a7,7,0,0,0,2.128,4.628,6.626,6.626,0,0,0,4.735,1.756,6.2,6.2,0,0,0,5.745-3.192h8.086a12.939,12.939,0,0,1-4.947,6.863,14.736,14.736,0,0,1-8.884,2.66Zm7.075-17.555a6.422,6.422,0,0,0-2.154-4.681,7.037,7.037,0,0,0-4.815-1.755,6.649,6.649,0,0,0-4.708,1.755,7.434,7.434,0,0,0-2.261,4.681Z" transform="translate(-135.329 -124.741)" fill-rule="evenodd"/>
    <path id="Path_176" data-name="Path 176" d="M580.224,242.733v22.185h-8.468V229.531q0-6.049,3.206-8.831t10.1-2.783h4.7v7.11H588l-2.933.028a5.416,5.416,0,0,0-3.75,1.029,4.588,4.588,0,0,0-1.089,3.447v6.246h5.323v6.956Z" transform="translate(-285.023 -46.116)" fill-rule="evenodd"/>
    <path id="Path_177" data-name="Path 177" d="M671.969,320.706v2.316c1.844-1.914,5.46-2.316,9.153-2.316l-.065,6.9c-3,0-9.088.89-9.088,4.867v17.189H664.6V320.706Z" transform="translate(-361.568 -130.861)" fill-rule="evenodd"/>
  </g>
</svg>
