<svg xmlns="http://www.w3.org/2000/svg" width="45.344" height="45.344" viewBox="0 0 45.344 45.344">
  <g id="Back_Bg" transform="translate(-2 -1.656)" fill="#8401ff" stroke-miterlimit="10">
    <path d="M 24.67184829711914 46.49996948242188 C 21.67844772338867 46.49996948242188 18.77484703063965 45.91382217407227 16.04171752929688 44.7578010559082 C 13.40156745910645 43.64110946655273 11.03036689758301 42.04236221313477 8.993977546691895 40.0059700012207 C 6.957587242126465 37.96958160400391 5.358847141265869 35.59838104248047 4.242157459259033 32.95822143554688 C 3.086137294769287 30.2250804901123 2.499987363815308 27.32148170471191 2.499987363815308 24.32808113098145 C 2.499987363815308 21.33469200134277 3.086137294769287 18.43109130859375 4.242157459259033 15.69796085357666 C 5.358847141265869 13.05781078338623 6.957587242126465 10.68660068511963 8.993977546691895 8.650211334228516 C 11.03036689758301 6.613811016082764 13.40156745910645 5.015060901641846 16.04171752929688 3.89837121963501 C 18.77484703063965 2.742341041564941 21.67844772338867 2.156191110610962 24.67184829711914 2.156191110610962 C 27.66525650024414 2.156191110610962 30.56885719299316 2.742341041564941 33.30200576782227 3.89837121963501 C 35.94215774536133 5.015060901641846 38.3133659362793 6.613811016082764 40.34975814819336 8.650211334228516 C 42.38613891601562 10.68660068511963 43.98488616943359 13.05781078338623 45.10157775878906 15.69796085357666 C 46.25759887695312 18.43109130859375 46.84374618530273 21.33469200134277 46.84374618530273 24.32808113098145 C 46.84374618530273 27.32148170471191 46.25759887695312 30.2250804901123 45.10157775878906 32.95822143554688 C 43.98488616943359 35.59838104248047 42.38614654541016 37.96958160400391 40.34975814819336 40.0059700012207 C 38.3133659362793 42.04236221313477 35.94215774536133 43.64110946655273 33.30200576782227 44.7578010559082 C 30.56886672973633 45.91382217407227 27.66525650024414 46.49996948242188 24.67184829711914 46.49996948242188 Z" stroke="none"/>
    <path d="M 24.67184829711914 2.656192779541016 C 21.7457275390625 2.656192779541016 18.90766716003418 3.229049682617188 16.23648834228516 4.358871459960938 C 13.65593719482422 5.450359344482422 11.33815765380859 7.01312255859375 9.347526550292969 9.003761291503906 C 7.356899261474609 10.99440002441406 5.794136047363281 13.31217956542969 4.702655792236328 15.89273071289062 C 3.572849273681641 18.56391143798828 2.999988555908203 21.4019718170166 2.999988555908203 24.32808113098145 C 2.999988555908203 27.25421142578125 3.572849273681641 30.09227180480957 4.702655792236328 32.76345062255859 C 5.794136047363281 35.34400177001953 7.356899261474609 37.66178894042969 9.347526550292969 39.65242004394531 C 11.33815765380859 41.64305114746094 13.65593719482422 43.205810546875 16.23648834228516 44.29730224609375 C 18.90765762329102 45.4271125793457 21.7457275390625 45.99996948242188 24.67184829711914 45.99996948242188 C 27.59797668457031 45.99996948242188 30.4360466003418 45.4271125793457 33.10722732543945 44.29729080200195 C 35.68778610229492 43.205810546875 38.00556945800781 41.64305114746094 39.99619674682617 39.65242004394531 C 41.9868278503418 37.66178894042969 43.54959869384766 35.34400177001953 44.64107894897461 32.76345062255859 C 45.77088928222656 30.09227180480957 46.34374618530273 27.25421142578125 46.34374618530273 24.32808113098145 C 46.34374618530273 21.4019718170166 45.77088928222656 18.56391143798828 44.64107894897461 15.89273071289062 C 43.54958724975586 13.31217956542969 41.9868278503418 10.99440002441406 39.99619674682617 9.003761291503906 C 38.00556945800781 7.01312255859375 35.68777847290039 5.450359344482422 33.10722732543945 4.358871459960938 C 30.4360466003418 3.229049682617188 27.59797668457031 2.656192779541016 24.67184829711914 2.656192779541016 M 24.67184829711914 1.656192779541016 C 37.19320678710938 1.656192779541016 47.34374618530273 11.80680084228516 47.34374618530273 24.32808113098145 C 47.34374618530273 36.84941101074219 37.19320678710938 46.99996948242188 24.67184829711914 46.99996948242188 C 12.15052795410156 46.99996948242188 1.999988555908203 36.84941101074219 1.999988555908203 24.32808113098145 C 1.999988555908203 11.80680084228516 12.15052795410156 1.656192779541016 24.67184829711914 1.656192779541016 Z" stroke="none" fill="#fff"/>
  </g>
  <path id="Back" d="M2.326,10.032h15.81L12.222,4.225a1.285,1.285,0,0,1,0-1.841,1.343,1.343,0,0,1,1.875,0l8.178,8.03a1.285,1.285,0,0,1,0,1.841L14.1,20.285a1.343,1.343,0,0,1-1.875,0,1.285,1.285,0,0,1,0-1.841l5.914-5.807H2.326a1.3,1.3,0,1,1,0-2.6Z" transform="translate(10.84 11.338)" fill="#fff"/>
</svg>
